<svg id="Layer_1" data-name="Layer 1" xmlns="http://www.w3.org/2000/svg" viewBox="0 0 487 345"><path d="M454.86,1141.69l2.09-6.27-.64-.42-2.63,4.17-.59-.24c.75-1.66,1.2-3.57,2.31-4.93,2.12-2.58,4.64-4.84,7-7.26a32.33,32.33,0,0,0,4.08-4.55,3.53,3.53,0,0,0-.45-3.12,15.66,15.66,0,0,0-3.45-3c-4.83-3.56-5-8.83-.26-12.52a17.17,17.17,0,0,0,1.34-1.58,35.41,35.41,0,0,0-4.47-1c-2.61-.23-4.9-1-6-3.53a4.26,4.26,0,0,1-.28-3.25c3.55-6.23,6.54-12.86,12.29-17.56,4.18-3.42,4.26-4.9,1.51-9.35a5.37,5.37,0,0,1-.37-3.68c1.12-4.94,2.65-9.78,3.65-14.74a28.4,28.4,0,0,1,7.21-14.39,3.35,3.35,0,0,0,.7-4.1c-2.12-5.34.62-10.41,6.28-12.2,2.63-.83,5.17-2,7.82-2.71a31.72,31.72,0,0,1,5.67-.88c3.36-.31,6.83-.08,10.07-.84,7.06-1.65,14-2.73,21.3-1.36,3.19.6,6.53.4,9.8.63a12,12,0,0,1,3.62.59c7.57,3.12,14.42,7.28,19.86,13.57a19.36,19.36,0,0,0,4.49,3.65c4.32,2.66,7.66,6,9.5,10.91.74,2,2.63,3.48,4,5.18,1.57,1.9,4.1,3.32,3.17,6.46-.08.26,0,.75.15.86,3.32,2.17,1.85,5.35,1.48,8.09-.53,4-.3,7.47,2.51,10.65,2.66,3,1.28,6.41-.23,9.25-1.87,3.54-2.63,6.28.86,9.42,2.35,2.13,1.87,4.84-.32,7.63a2.48,2.48,0,0,0,.31.81c3.1,3.5,3.09,3.49-.33,7.18a5.37,5.37,0,0,0-1,1.54c-1,2.37-2.5,3.07-4.9,2.07-.54-.23-1.29.06-1.94.11a7,7,0,0,0,.71,2.07,33.89,33.89,0,0,0,2.57,2.84l-5,3.73c-.08.06-.21.17-.26.15-3.18-1.79-5.14,1.52-7.72,1.77-1.37.13-2.91-1.4-5.23-2.64.71,1.82,1.14,2.94,1.57,4.06,1.74,4.45,3.45,8.91,5.21,13.36a65,65,0,0,0,3.18,7.64c3.21,5.85,6.59,11.61,10,17.34,7.32,12.22,13.48,24.94,16.76,38.9.84,3.56,1.43,7.18,2.18,11a16.89,16.89,0,0,1-2,.2,81.07,81.07,0,0,0-40.86,8.39,98.11,98.11,0,0,0-25.53,19c-9.71,9.85-19.48,19.68-29.72,29-12.2,11.07-31.77,12.68-46.09,4.6-4.29-2.41-8.68-4.66-13-7-2.16-1.15-2.58-2.56-3.05-5.25-.74-4.29.08-8.13.7-12A208.83,208.83,0,0,1,456,1205.89c2.1-5.45,3.8-11.13,6.51-16.27,2.41-4.56,6-8.53,9-12.75,3.42-4.73,6.89-9.43,10.21-14.23a2.72,2.72,0,0,0-.28-2.45c-.53-.76-2.32-1.35-2.24-1.71.45-2,.78-4.49,2.13-5.73,2.75-2.51,3.24-3.09,1.71-6.81a15.1,15.1,0,0,0-3.46,1.64,3.83,3.83,0,0,0-1.31,2.65c.05,5.39-.27,6.07-5.77,6.37-2.46.13-3.07,1.06-3.57,3.16-.28,1.18-1.47,2.23-2.43,3.15a14.34,14.34,0,0,1-3.78,2.94,30.46,30.46,0,0,1-5.48,1.37l-.6-3.48-1.48,4c-1.3-4.36-3.95-8.57.91-12.62l-.93-.29-3.32,2.1-.55-.55,2.85-3.28-1.65-2.62a22.76,22.76,0,0,1,2.43-4.49C456.23,1144.36,456.09,1143.11,454.86,1141.69Z" transform="translate(-398 -970)" style="fill:#fff"/><path id="path5818" d="M798,1286.43a62.06,62.06,0,0,1-9.82-1.85c-1.6-.46-4.12-1.12-5.59-1.49a27.18,27.18,0,0,1-4.45-1.56,9.76,9.76,0,0,0-2.27-.89,9.39,9.39,0,0,1-2.43-1.33,7.48,7.48,0,0,0-3.11-1.32c-2.48,0-24.48-13.81-30.42-19.09a14.51,14.51,0,0,0-2.78-2.12,4.81,4.81,0,0,1-1.54-.94c-1.15-.93-8.52-7.21-11.38-9.68-1.69-1.47-2.13-1.79-7.43-5.45-5.61-3.88-12.42-8.35-12.73-8.35-.9,0-4.75-3.79-6.15-6.07-2.49-4-3.29-7.73-3.33-15.41,0-5.35.42-9.35,1.27-11.57.69-1.83.74-4.44.08-4.85-.94-.58.11-2.41,3.46-6A68,68,0,0,0,704,1183a101.78,101.78,0,0,1,6.85-9.22,7.89,7.89,0,0,0,1.47-1.91,5.85,5.85,0,0,1,1.13-1.59,42.64,42.64,0,0,0,2.86-3.92,23,23,0,0,1,2.84-3.66,14.5,14.5,0,0,0,3.94-8c.38-3.28,2.53-7.63,5.79-11.68a23.25,23.25,0,0,0,3.4-5.9,14.72,14.72,0,0,1,2.2-3.79c1.65-2.17,1.95-3.1,2.77-8.47,1-6.53.73-10-.9-12-.5-.61-2.61-2.78-4.7-4.82a65.77,65.77,0,0,1-4.53-4.77,32.28,32.28,0,0,0-4.59-4,30,30,0,0,1-5.25-4.92c-1.7-2.45-3.29-2.94-6.06-1.85-3.12,1.22-7,.78-9.35-1.06a33,33,0,0,0-2.81-2,15.87,15.87,0,0,1-1.83-1.28c-1.06-.88-3.76-6.4-3.57-7.31a20.45,20.45,0,0,0-2-4.82,34.16,34.16,0,0,1-2.3-5,4.57,4.57,0,0,0-.9-1.77c-.42-.53-.52-.81-.23-.63.55.32,1.26-1.25,3.38-7.54a16.53,16.53,0,0,1,2.34-4.69,9.36,9.36,0,0,1,7.3-3.08c3.22.37,4.54-1.79,3.2-5.23-.86-2.19-.13-3,2.75-2.84,2.29.08,2.84-.11,3.79-1.27.61-.74,2.3-2.83,3.76-4.64a66.32,66.32,0,0,1,7.13-7.09,72.24,72.24,0,0,1,9.8-7.38c3.56-2.37,16.82-9.19,17.47-9a1.39,1.39,0,0,0,1.06-.32c.88-.66,6.72-2.39,7-2.08a6.7,6.7,0,0,0,2.76-.49c3.51-1.06,13.12-1.53,16.32-.8a53,53,0,0,0,6.86.85c11,.65,15.4,1.72,22.28,5.35,10.69,5.64,9.92,5.1,15.06,10.53a12.41,12.41,0,0,0,2.76,2.45c.72,0,4.2,3.24,4.21,3.9,0,.34.8,1.13,1.78,1.76l1.78,1.16-.08,4.68c-.09,5.48-1.06,8.94-2.84,10.17-3.17,2.17-3.17,2.19-3,8.1.08,3,.16,5.79.19,6.14a72.56,72.56,0,0,0,4,6.4,48.61,48.61,0,0,1,3.26,5.44c.8,1.6,2.26,4.17,3.24,5.71a12.09,12.09,0,0,1,1.79,3.73c0,1.79-1.61,3.2-5.29,4.65-5,1.95-5.58,2.7-5.6,7,0,2.92-.19,3.6-1.19,4.41a3.32,3.32,0,0,0-1.18,2.84,7.65,7.65,0,0,1-1.36,3.88c-.9,1.32-1.25,2.4-1,3.2,1,3.83.91,5.84-.19,8a9.48,9.48,0,0,1-2.32,3c-2.53,1.65-11.32,3.81-17.63,4.32-5.23.42-7.34,1.2-10,3.67-4.15,3.87-6.64,11.69-4.86,15.26a7.64,7.64,0,0,1,.8,2.6c0,1.1,2.84,6.49,4.29,8.13a19.13,19.13,0,0,1,2.6,6.21,8.51,8.51,0,0,1-1.54,2.15c-1.48,1.68-1.53,1.9-1,4.4a30,30,0,0,0,.84,3.42,10.44,10.44,0,0,1,.44,1.44c.37,1.75,4.53,9.07,7.21,12.68,3.14,4.23,14.83,13.86,16.8,15.32s17.64,11.81,17.64,22.83S823,1251.22,820.25,1254c-9.22,9.61-10.43,11.89-10.57,20a38.21,38.21,0,0,0,.63,8.11c.73,2.84.56,3.94-.56,3.75a15.46,15.46,0,0,0-3,.29A26.77,26.77,0,0,1,798,1286.43Z" transform="translate(-398 -970)" style="fill:#fff"/><path d="M767.5,1315c-64.79,0-117.5-77.38-117.5-172.5S702.71,970,767.5,970,885,1047.38,885,1142.5,832.29,1315,767.5,1315Zm0-342c-63.14,0-114.5,76-114.5,169.5S704.36,1312,767.5,1312,882,1236,882,1142.5,830.64,973,767.5,973Z" transform="translate(-398 -970)" style="fill:#fff"/><path d="M515.5,1315c-64.79,0-117.5-77.38-117.5-172.5S450.71,970,515.5,970,633,1047.38,633,1142.5,580.29,1315,515.5,1315Zm0-342c-63.14,0-114.5,76-114.5,169.5S452.36,1312,515.5,1312,630,1236,630,1142.5,578.64,973,515.5,973Z" transform="translate(-398 -970)" style="fill:#fff"/></svg>