<svg id="Layer_1" data-name="Layer 1" xmlns="http://www.w3.org/2000/svg" viewBox="0 0 93.53 92.21"><path d="M571.83,1296.78c-36.33-8-42.42,51.53-55.5,55.44-8.32,2.49-9.5,12.14-3.6,16.4,18.71,13.53,51.71,23.53,82.63,18.16,7.17-1.24,10.12-10.65,3.6-16.4-10.23-9,9.2-65.61-27.13-73.6Zm-14.54,66c20,4.4,35.31,12.25,34.15,17.53s-18.33,6-38.35,1.59-35.3-12.25-34.14-17.53,18.32-6,38.34-1.59Zm17.29,7.48a12.67,12.67,0,0,1-24.66-5.85c.05-.25.12-.5.19-.74,2.1.36,4.26.78,6.45,1.26a125,125,0,0,1,18,5.33Z" transform="translate(-509.05 -1296.04)" style="fill:#fff;fill-rule:evenodd"/></svg>