<svg id="Layer_1" data-name="Layer 1" xmlns="http://www.w3.org/2000/svg" viewBox="0 0 194.81 175.59"><path d="M503.69,1218.69l4.76-1,3.53,16.67,10.3-2.18.83,3.87-15.06,3.2Z" transform="translate(-464.57 -1130.43)" style="fill:#fff"/><path d="M529.39,1233.63a10.38,10.38,0,0,1-4.83-2.94,11.16,11.16,0,0,1-2.31-10.89,10.52,10.52,0,0,1,3.21-4.65A13,13,0,0,1,537,1212.7a10.58,10.58,0,0,1,4.83,3,11.08,11.08,0,0,1,2.31,10.88,10.65,10.65,0,0,1-3.21,4.66,13,13,0,0,1-11.52,2.44Zm8.31-5.42a6.2,6.2,0,0,0,1.81-2.83,7.53,7.53,0,0,0-1.45-6.81,6.19,6.19,0,0,0-2.8-1.84,7,7,0,0,0-6.57,1.4,6.12,6.12,0,0,0-1.81,2.82,7,7,0,0,0-.11,3.58,7,7,0,0,0,1.56,3.23,6.08,6.08,0,0,0,2.79,1.84,6.66,6.66,0,0,0,3.47.14A6.75,6.75,0,0,0,537.7,1228.21Z" transform="translate(-464.57 -1130.43)" style="fill:#fff"/><path d="M561.82,1216.75l4.35-.92,1.77,8.33a12.69,12.69,0,0,1-3.46,2.76,15.76,15.76,0,0,1-4.29,1.62,12.28,12.28,0,0,1-6-.15,10.27,10.27,0,0,1-4.81-2.93,11.28,11.28,0,0,1-2.33-11,10.37,10.37,0,0,1,3.23-4.64,12.52,12.52,0,0,1,5.52-2.6,13.16,13.16,0,0,1,5.1-.13,10,10,0,0,1,4.26,1.86l-2.46,3.46a7.22,7.22,0,0,0-5.8-1.19,7.47,7.47,0,0,0-3.32,1.56,6,6,0,0,0-1.88,2.83,7.42,7.42,0,0,0,1.45,6.84,6.25,6.25,0,0,0,2.86,1.83,7.11,7.11,0,0,0,3.62.1,7.85,7.85,0,0,0,3.51-1.66Z" transform="translate(-464.57 -1130.43)" style="fill:#fff"/><path d="M576.76,1203.18l4.76-1,4.36,20.55-4.76,1Z" transform="translate(-464.57 -1130.43)" style="fill:#fff"/><path d="M605.23,1197.14l4.36,20.54-3.9.83-12.89-10.3,2.64,12.47-4.69,1-4.36-20.54,3.93-.84,12.86,10.31-2.65-12.47Z" transform="translate(-464.57 -1130.43)" style="fill:#fff"/><path d="M465,1162.7a1,1,0,0,1-.44-.64.93.93,0,0,1,.15-.75,1,1,0,0,1,.66-.45,1,1,0,0,1,.78.13,1,1,0,0,1,.44.62,1,1,0,0,1-.14.78,1,1,0,0,1-.66.45A1,1,0,0,1,465,1162.7Zm.56,2.54,1.39-.3,2.19,10.29-1.39.3Z" transform="translate(-464.57 -1130.43)" style="fill:#fff"/><path d="M478.42,1163.61a4.49,4.49,0,0,1,1.84,3l1.27,6-1.39.29-1.24-5.83a3.43,3.43,0,0,0-1.32-2.27,3.08,3.08,0,0,0-2.47-.36,3.64,3.64,0,0,0-2.42,1.55,3.88,3.88,0,0,0-.39,2.94l1.15,5.39-1.39.3-2.18-10.29,1.33-.28.4,1.89a4,4,0,0,1,1.26-1.79,5.2,5.2,0,0,1,2.23-1A4.26,4.26,0,0,1,478.42,1163.61Z" transform="translate(-464.57 -1130.43)" style="fill:#fff"/><path d="M489.54,1155.74l1.39-.3L494,1170l-1.39.29Z" transform="translate(-464.57 -1130.43)" style="fill:#fff"/><path d="M498.31,1168.44A5.06,5.06,0,0,1,496,1167a5.82,5.82,0,0,1-1.14-5.4,5,5,0,0,1,1.48-2.25,5.83,5.83,0,0,1,5.36-1.14,4.88,4.88,0,0,1,2.27,1.46,5.54,5.54,0,0,1,1.24,2.56,5.44,5.44,0,0,1-.1,2.84,5,5,0,0,1-1.47,2.27,5.46,5.46,0,0,1-2.54,1.24A5.36,5.36,0,0,1,498.31,1168.44Zm4.42-2a3.53,3.53,0,0,0,1.06-1.71,4.86,4.86,0,0,0-.89-4.18,3.49,3.49,0,0,0-1.66-1.13,3.9,3.9,0,0,0-2.07-.08,4,4,0,0,0-1.86.91,3.65,3.65,0,0,0-1.07,1.71,4.79,4.79,0,0,0,.89,4.19,3.64,3.64,0,0,0,1.67,1.13,4.21,4.21,0,0,0,3.93-.84Z" transform="translate(-464.57 -1130.43)" style="fill:#fff"/><path d="M515.54,1154.64l1.92,9a5.35,5.35,0,0,1-.46,4.16,5.43,5.43,0,0,1-3.6,2.08,8.86,8.86,0,0,1-2.8.16,5.61,5.61,0,0,1-2.33-.73l.48-1.2a5.45,5.45,0,0,0,2,.65,7,7,0,0,0,2.32-.1,4.1,4.1,0,0,0,2.69-1.52,3.9,3.9,0,0,0,.31-3l-.27-1.32a4.23,4.23,0,0,1-1.38,1.85,5.32,5.32,0,0,1-2.21,1,5.5,5.5,0,0,1-2.77-.08,4.69,4.69,0,0,1-2.23-1.38,5.23,5.23,0,0,1-1.23-2.45,5.12,5.12,0,0,1,.13-2.73,4.78,4.78,0,0,1,1.47-2.15,5.74,5.74,0,0,1,2.51-1.19,5.45,5.45,0,0,1,2.48,0,4.36,4.36,0,0,1,2,1.16l-.42-2Zm-1.51,8.87a3.51,3.51,0,0,0,1.11-1.63,4,4,0,0,0,.09-2.07,3.87,3.87,0,0,0-.92-1.84,3.58,3.58,0,0,0-1.67-1,4.21,4.21,0,0,0-2.12,0,4.33,4.33,0,0,0-1.91.89,3.46,3.46,0,0,0-1.11,1.63,4.2,4.2,0,0,0,.83,3.91,3.7,3.7,0,0,0,1.68,1,4.24,4.24,0,0,0,2.1.05A4.29,4.29,0,0,0,514,1163.51Z" transform="translate(-464.57 -1130.43)" style="fill:#fff"/><path d="M522,1150.6a1,1,0,0,1-.44-.64,1,1,0,0,1,.14-.75,1,1,0,0,1,.67-.45,1,1,0,0,1,.78.13.94.94,0,0,1,.44.61,1,1,0,0,1-.14.79,1,1,0,0,1-.66.45A1,1,0,0,1,522,1150.6Zm.56,2.54,1.39-.3,2.18,10.29-1.39.3Z" transform="translate(-464.57 -1130.43)" style="fill:#fff"/><path d="M535.43,1151.51a4.47,4.47,0,0,1,1.84,3l1.27,6-1.39.29-1.24-5.83a3.48,3.48,0,0,0-1.32-2.27,3.08,3.08,0,0,0-2.47-.36,3.6,3.6,0,0,0-2.42,1.55,3.81,3.81,0,0,0-.39,2.93l1.15,5.4-1.39.3-2.19-10.29,1.33-.29.41,1.9a3.92,3.92,0,0,1,1.26-1.79,5,5,0,0,1,2.23-1A4.26,4.26,0,0,1,535.43,1151.51Z" transform="translate(-464.57 -1130.43)" style="fill:#fff"/><path d="M546.55,1143.64l1.39-.3,3.08,14.52-1.39.29Z" transform="translate(-464.57 -1130.43)" style="fill:#fff"/><path d="M555.32,1156.34a5.06,5.06,0,0,1-2.28-1.47,5.58,5.58,0,0,1-1.26-2.55,5.47,5.47,0,0,1,.12-2.85,4.88,4.88,0,0,1,1.48-2.25,5.83,5.83,0,0,1,5.36-1.14,4.85,4.85,0,0,1,2.26,1.46,5.87,5.87,0,0,1,1.15,5.4,4.89,4.89,0,0,1-1.47,2.26,5.75,5.75,0,0,1-5.36,1.14Zm4.42-2a3.63,3.63,0,0,0,1.06-1.71,4.48,4.48,0,0,0,0-2.19,4.33,4.33,0,0,0-.93-2,3.54,3.54,0,0,0-1.66-1.13,4,4,0,0,0-2.07-.09,4.08,4.08,0,0,0-1.86.92,3.65,3.65,0,0,0-1.07,1.71,4.52,4.52,0,0,0-.06,2.2,4.45,4.45,0,0,0,.95,2,3.54,3.54,0,0,0,1.67,1.12,4.17,4.17,0,0,0,3.93-.83Z" transform="translate(-464.57 -1130.43)" style="fill:#fff"/><path d="M572.55,1142.53l1.91,9a5.35,5.35,0,0,1-.45,4.16,5.47,5.47,0,0,1-3.6,2.08,8.85,8.85,0,0,1-2.8.15,5.47,5.47,0,0,1-2.33-.72l.48-1.2a5.64,5.64,0,0,0,2,.65,7,7,0,0,0,2.32-.1,4.07,4.07,0,0,0,2.68-1.52,3.92,3.92,0,0,0,.32-3l-.28-1.31a4.29,4.29,0,0,1-1.37,1.85,5.32,5.32,0,0,1-2.21,1,5.62,5.62,0,0,1-2.77-.08,4.84,4.84,0,0,1-2.24-1.38,5.12,5.12,0,0,1-1.22-2.45,5,5,0,0,1,.13-2.73,4.78,4.78,0,0,1,1.47-2.15,5.69,5.69,0,0,1,2.51-1.19,5.31,5.31,0,0,1,2.48,0,4.41,4.41,0,0,1,2,1.16l-.42-2Zm-1.51,8.88a3.54,3.54,0,0,0,1.11-1.64,4.17,4.17,0,0,0-.83-3.9,3.5,3.5,0,0,0-1.67-1,4.24,4.24,0,0,0-2.13,0,4.19,4.19,0,0,0-1.9.89,3.46,3.46,0,0,0-1.11,1.63,4.2,4.2,0,0,0,.83,3.91,3.55,3.55,0,0,0,1.68,1,4.13,4.13,0,0,0,2.1.06A4.34,4.34,0,0,0,571,1151.41Z" transform="translate(-464.57 -1130.43)" style="fill:#fff"/><path d="M579.05,1138.5a1,1,0,0,1-.44-.65.93.93,0,0,1,.14-.74,1.08,1.08,0,0,1,1.45-.32.94.94,0,0,1,.44.61,1,1,0,0,1-.14.79,1.06,1.06,0,0,1-.66.45A1,1,0,0,1,579.05,1138.5Zm.56,2.53,1.39-.29,2.18,10.29-1.39.3Z" transform="translate(-464.57 -1130.43)" style="fill:#fff"/><path d="M592.44,1139.4a4.49,4.49,0,0,1,1.84,3l1.27,6-1.39.29-1.24-5.83a3.48,3.48,0,0,0-1.32-2.27,3.08,3.08,0,0,0-2.47-.36,3.58,3.58,0,0,0-2.42,1.55,3.77,3.77,0,0,0-.39,2.93l1.15,5.4-1.39.3-2.19-10.3,1.33-.28.41,1.9a3.87,3.87,0,0,1,1.26-1.79,5.16,5.16,0,0,1,2.23-1A4.35,4.35,0,0,1,592.44,1139.4Z" transform="translate(-464.57 -1130.43)" style="fill:#fff"/><path d="M603.56,1131.53l1.39-.29,3.08,14.52-1.39.29Z" transform="translate(-464.57 -1130.43)" style="fill:#fff"/><path d="M612.33,1144.24a5.06,5.06,0,0,1-2.28-1.47,5.58,5.58,0,0,1-1.26-2.55,5.47,5.47,0,0,1,.12-2.85,5,5,0,0,1,1.48-2.26,5.55,5.55,0,0,1,2.54-1.23,5.47,5.47,0,0,1,2.82.1,4.85,4.85,0,0,1,2.26,1.46,5.47,5.47,0,0,1,1.25,2.55,5.58,5.58,0,0,1-.1,2.85,5,5,0,0,1-1.47,2.26,5.75,5.75,0,0,1-5.36,1.14Zm4.42-2a3.63,3.63,0,0,0,1.06-1.71,4.87,4.87,0,0,0-.89-4.19,3.61,3.61,0,0,0-1.66-1.13,4,4,0,0,0-2.07-.08,4.07,4.07,0,0,0-1.87.92,3.61,3.61,0,0,0-1.06,1.71,4.68,4.68,0,0,0,.89,4.18,3.56,3.56,0,0,0,1.67,1.13,3.9,3.9,0,0,0,2.07.08A4,4,0,0,0,616.75,1142.2Z" transform="translate(-464.57 -1130.43)" style="fill:#fff"/><path d="M629.55,1130.43l1.92,9a5.4,5.4,0,0,1-.45,4.16,5.47,5.47,0,0,1-3.6,2.08,8.85,8.85,0,0,1-2.8.15,5.76,5.76,0,0,1-2.33-.72l.48-1.21a5.46,5.46,0,0,0,2,.66,7,7,0,0,0,2.32-.11,4,4,0,0,0,2.68-1.52,3.88,3.88,0,0,0,.32-3l-.28-1.31a4.34,4.34,0,0,1-1.37,1.85,5.52,5.52,0,0,1-2.21,1,5.62,5.62,0,0,1-2.77-.08,4.86,4.86,0,0,1-2.24-1.39,5.4,5.4,0,0,1-1.09-5.17,4.7,4.7,0,0,1,1.47-2.15,5.58,5.58,0,0,1,2.51-1.19,5.18,5.18,0,0,1,2.48,0,4.33,4.33,0,0,1,2,1.16l-.42-2Zm-1.5,8.88a3.54,3.54,0,0,0,1.11-1.64,4.17,4.17,0,0,0-.83-3.9,3.6,3.6,0,0,0-1.67-1,4.36,4.36,0,0,0-2.13,0,4.3,4.3,0,0,0-1.9.9,3.48,3.48,0,0,0-1.11,1.62,4.21,4.21,0,0,0,.83,3.92,3.57,3.57,0,0,0,1.67,1,4.29,4.29,0,0,0,2.11.06A4.39,4.39,0,0,0,628.05,1139.31Z" transform="translate(-464.57 -1130.43)" style="fill:#fff"/><path d="M471,1193.76l1.39-.29L475.5,1208l-1.39.3Z" transform="translate(-464.57 -1130.43)" style="fill:#fff"/><path d="M479.8,1206.47a5,5,0,0,1-2.27-1.47,5.38,5.38,0,0,1-1.26-2.56,5.44,5.44,0,0,1,.11-2.84,5,5,0,0,1,1.48-2.26,5.9,5.9,0,0,1,5.36-1.14,5,5,0,0,1,2.27,1.46,5.65,5.65,0,0,1,1.25,2.56,5.54,5.54,0,0,1-.11,2.84,4.92,4.92,0,0,1-1.47,2.27,5.43,5.43,0,0,1-2.53,1.24A5.5,5.5,0,0,1,479.8,1206.47Zm4.42-2a3.48,3.48,0,0,0,1.06-1.7,4.79,4.79,0,0,0-.89-4.19,3.56,3.56,0,0,0-1.66-1.13,4.21,4.21,0,0,0-3.93.84,3.55,3.55,0,0,0-1.07,1.71,4.77,4.77,0,0,0,.89,4.18,3.64,3.64,0,0,0,1.67,1.13,4.21,4.21,0,0,0,3.93-.84Z" transform="translate(-464.57 -1130.43)" style="fill:#fff"/><path d="M497,1192.66l1.92,9a5.33,5.33,0,0,1-.46,4.15,5.39,5.39,0,0,1-3.59,2.09,8.88,8.88,0,0,1-2.8.15,5.71,5.71,0,0,1-2.33-.72l.48-1.21a5.22,5.22,0,0,0,2,.65,6.68,6.68,0,0,0,2.31-.1,4.06,4.06,0,0,0,2.69-1.52,3.94,3.94,0,0,0,.32-3l-.28-1.31a4.2,4.2,0,0,1-1.38,1.84,5.27,5.27,0,0,1-2.21,1,5.58,5.58,0,0,1-2.76-.07,4.81,4.81,0,0,1-2.24-1.39,5.18,5.18,0,0,1-1.23-2.45,5.09,5.09,0,0,1,.13-2.72,4.75,4.75,0,0,1,1.48-2.16,5.58,5.58,0,0,1,2.5-1.18,5.32,5.32,0,0,1,2.48,0,4.38,4.38,0,0,1,2,1.17l-.42-2Zm-1.51,8.88a3.59,3.59,0,0,0,1.11-1.64,4.13,4.13,0,0,0-.82-3.9,3.55,3.55,0,0,0-1.68-1,4.6,4.6,0,0,0-4,.85,3.48,3.48,0,0,0-1.1,1.62,4,4,0,0,0-.09,2.06,3.9,3.9,0,0,0,.92,1.85,3.46,3.46,0,0,0,1.67,1.05,4.59,4.59,0,0,0,4-.85Z" transform="translate(-464.57 -1130.43)" style="fill:#fff"/><path d="M503.53,1188.62a1,1,0,0,1-.44-.64.93.93,0,0,1,.15-.75,1,1,0,0,1,.66-.45,1,1,0,0,1,.78.13,1,1,0,0,1,.44.62,1,1,0,0,1-.14.78,1,1,0,0,1-.66.45A1,1,0,0,1,503.53,1188.62Zm.56,2.54,1.39-.3,2.19,10.3-1.39.29Z" transform="translate(-464.57 -1130.43)" style="fill:#fff"/><path d="M516.92,1189.53a4.49,4.49,0,0,1,1.84,3l1.27,6-1.39.3L517.4,1193a3.45,3.45,0,0,0-1.32-2.28,3,3,0,0,0-2.47-.35,3.61,3.61,0,0,0-2.42,1.54,3.89,3.89,0,0,0-.39,2.94l1.15,5.4-1.39.29-2.18-10.29,1.33-.28.4,1.9a3.92,3.92,0,0,1,1.27-1.8,5.23,5.23,0,0,1,2.22-1A4.26,4.26,0,0,1,516.92,1189.53Z" transform="translate(-464.57 -1130.43)" style="fill:#fff"/><path d="M528,1181.66l1.39-.3,3.08,14.52-1.39.3Z" transform="translate(-464.57 -1130.43)" style="fill:#fff"/><path d="M536.81,1194.37a5.14,5.14,0,0,1-2.27-1.47,5.8,5.8,0,0,1-1.15-5.4,4.94,4.94,0,0,1,1.48-2.26,5.66,5.66,0,0,1,2.54-1.24,5.58,5.58,0,0,1,2.82.1,5,5,0,0,1,2.27,1.46,5.58,5.58,0,0,1,1.24,2.56,5.44,5.44,0,0,1-.1,2.84,5,5,0,0,1-1.47,2.27,5.83,5.83,0,0,1-5.36,1.14Zm4.42-2a3.55,3.55,0,0,0,1.06-1.7,4.79,4.79,0,0,0-.89-4.19,3.56,3.56,0,0,0-1.66-1.13,3.9,3.9,0,0,0-2.07-.08,4,4,0,0,0-1.86.91,3.65,3.65,0,0,0-1.07,1.71,4.79,4.79,0,0,0,.89,4.19,3.64,3.64,0,0,0,1.67,1.13,4.21,4.21,0,0,0,3.93-.84Z" transform="translate(-464.57 -1130.43)" style="fill:#fff"/><path d="M554,1180.56l1.92,9a5.33,5.33,0,0,1-.46,4.15,5.41,5.41,0,0,1-3.6,2.08,8.53,8.53,0,0,1-2.79.16,5.76,5.76,0,0,1-2.34-.72l.48-1.21a5.27,5.27,0,0,0,2,.65,6.72,6.72,0,0,0,2.32-.1,4.06,4.06,0,0,0,2.69-1.52,3.9,3.9,0,0,0,.31-3l-.27-1.31a4.26,4.26,0,0,1-1.38,1.84,5.32,5.32,0,0,1-2.21,1,5.62,5.62,0,0,1-2.77-.07,4.78,4.78,0,0,1-2.23-1.39,5.4,5.4,0,0,1-1.1-5.18,4.83,4.83,0,0,1,1.47-2.15,5.74,5.74,0,0,1,2.51-1.19,5.45,5.45,0,0,1,2.48,0,4.3,4.3,0,0,1,2,1.17l-.42-2Zm-1.51,8.87a3.51,3.51,0,0,0,1.11-1.63,4,4,0,0,0,.09-2.07,3.87,3.87,0,0,0-.92-1.84,3.58,3.58,0,0,0-1.67-1,4.21,4.21,0,0,0-2.12,0,4.33,4.33,0,0,0-1.91.89,3.51,3.51,0,0,0-1.11,1.63,4.2,4.2,0,0,0,.83,3.91,3.62,3.62,0,0,0,1.68,1,4.24,4.24,0,0,0,2.1,0A4.29,4.29,0,0,0,552.53,1189.43Z" transform="translate(-464.57 -1130.43)" style="fill:#fff"/><path d="M560.54,1176.52a1,1,0,0,1-.44-.64.93.93,0,0,1,.15-.75,1,1,0,0,1,.66-.45,1,1,0,0,1,.78.13.93.93,0,0,1,.44.62,1,1,0,0,1-.8,1.23A1,1,0,0,1,560.54,1176.52Zm.56,2.54,1.39-.3,2.18,10.29-1.38.3Z" transform="translate(-464.57 -1130.43)" style="fill:#fff"/><path d="M573.93,1177.43a4.49,4.49,0,0,1,1.84,3l1.27,6-1.39.29-1.24-5.83a3.47,3.47,0,0,0-1.32-2.27,3.08,3.08,0,0,0-2.47-.36,3.6,3.6,0,0,0-2.42,1.55,3.86,3.86,0,0,0-.39,2.93l1.15,5.4-1.39.3-2.18-10.29,1.33-.28.4,1.89a3.92,3.92,0,0,1,1.26-1.79,5.15,5.15,0,0,1,2.23-1A4.26,4.26,0,0,1,573.93,1177.43Z" transform="translate(-464.57 -1130.43)" style="fill:#fff"/><path d="M585.05,1169.56l1.39-.3,3.08,14.52-1.39.29Z" transform="translate(-464.57 -1130.43)" style="fill:#fff"/><path d="M593.82,1182.26a5.06,5.06,0,0,1-2.28-1.47,5.82,5.82,0,0,1-1.14-5.4,5,5,0,0,1,1.48-2.25,5.83,5.83,0,0,1,5.36-1.14,4.8,4.8,0,0,1,2.26,1.46,5.87,5.87,0,0,1,1.15,5.4,5,5,0,0,1-1.47,2.27,5.56,5.56,0,0,1-2.54,1.24A5.47,5.47,0,0,1,593.82,1182.26Zm4.42-2a3.53,3.53,0,0,0,1.06-1.71,4.48,4.48,0,0,0,0-2.19,4.33,4.33,0,0,0-.93-2,3.54,3.54,0,0,0-1.66-1.13,3.9,3.9,0,0,0-2.07-.08,4,4,0,0,0-1.86.91,3.65,3.65,0,0,0-1.07,1.71,4.79,4.79,0,0,0,.89,4.19,3.64,3.64,0,0,0,1.67,1.13,4.12,4.12,0,0,0,2.07.08A4,4,0,0,0,598.24,1180.22Z" transform="translate(-464.57 -1130.43)" style="fill:#fff"/><path d="M611.05,1168.45l1.92,9a4.62,4.62,0,0,1-4.06,6.24,9.16,9.16,0,0,1-2.8.16,5.61,5.61,0,0,1-2.33-.73l.48-1.2a5.45,5.45,0,0,0,2,.65,7,7,0,0,0,2.32-.1,4,4,0,0,0,2.68-1.52,3.87,3.87,0,0,0,.32-3l-.27-1.31a4.39,4.39,0,0,1-1.38,1.85,5.32,5.32,0,0,1-2.21,1,5.5,5.5,0,0,1-2.77-.08,4.69,4.69,0,0,1-2.23-1.38,5.4,5.4,0,0,1-1.1-5.18,4.78,4.78,0,0,1,1.47-2.15,5.74,5.74,0,0,1,2.51-1.19,5.45,5.45,0,0,1,2.48,0,4.41,4.41,0,0,1,2,1.16l-.42-2Zm-1.51,8.88a3.49,3.49,0,0,0,1.11-1.64,4,4,0,0,0,.09-2.06,3.87,3.87,0,0,0-.92-1.84,3.58,3.58,0,0,0-1.67-1,4.62,4.62,0,0,0-4,.84,3.46,3.46,0,0,0-1.11,1.63,4.2,4.2,0,0,0,.83,3.91,3.7,3.7,0,0,0,1.68,1,4.24,4.24,0,0,0,2.1,0A4.34,4.34,0,0,0,609.54,1177.33Z" transform="translate(-464.57 -1130.43)" style="fill:#fff"/><path d="M617.55,1164.42a1,1,0,0,1-.44-.65.9.9,0,0,1,.15-.74,1,1,0,0,1,.66-.45,1,1,0,0,1,.78.13.94.94,0,0,1,.44.61,1,1,0,0,1-.14.79,1,1,0,0,1-.66.45A1,1,0,0,1,617.55,1164.42Zm.56,2.54,1.39-.3,2.18,10.29-1.39.3Z" transform="translate(-464.57 -1130.43)" style="fill:#fff"/><path d="M630.94,1165.33a4.47,4.47,0,0,1,1.84,3l1.27,6-1.39.29-1.24-5.83a3.48,3.48,0,0,0-1.32-2.27,3.08,3.08,0,0,0-2.47-.36,3.6,3.6,0,0,0-2.42,1.55,3.81,3.81,0,0,0-.39,2.93L626,1176l-1.39.3-2.19-10.29,1.33-.29.41,1.9a3.87,3.87,0,0,1,1.26-1.79,5.16,5.16,0,0,1,2.23-1A4.31,4.31,0,0,1,630.94,1165.33Z" transform="translate(-464.57 -1130.43)" style="fill:#fff"/><path d="M478.88,1228a1,1,0,0,1-.44-.64.92.92,0,0,1,.15-.75,1,1,0,0,1,.66-.45,1,1,0,0,1,.78.13.9.9,0,0,1,.44.61,1,1,0,0,1-.14.79,1,1,0,0,1-.66.45A1,1,0,0,1,478.88,1228Zm.56,2.54,1.39-.3,2.19,10.29-1.39.3Z" transform="translate(-464.57 -1130.43)" style="fill:#fff"/><path d="M492.27,1228.86a4.43,4.43,0,0,1,1.84,3l1.27,6-1.39.29-1.24-5.83a3.4,3.4,0,0,0-1.32-2.27,3.05,3.05,0,0,0-2.46-.36,3.62,3.62,0,0,0-2.43,1.55,3.85,3.85,0,0,0-.39,2.93l1.15,5.4-1.39.3-2.18-10.29,1.33-.29.4,1.9a4,4,0,0,1,1.27-1.79,5,5,0,0,1,2.22-1A4.26,4.26,0,0,1,492.27,1228.86Z" transform="translate(-464.57 -1130.43)" style="fill:#fff"/><path d="M617.41,1196.78l1.39-.29,3.08,14.51-1.39.3Z" transform="translate(-464.57 -1130.43)" style="fill:#fff"/><path d="M626.18,1209.49a5.06,5.06,0,0,1-2.28-1.47,5.56,5.56,0,0,1-1.26-2.56,5.43,5.43,0,0,1,.12-2.84,4.91,4.91,0,0,1,1.48-2.26,5.9,5.9,0,0,1,5.36-1.14,5,5,0,0,1,2.26,1.47,5.86,5.86,0,0,1,1.15,5.4,5,5,0,0,1-1.47,2.26,5.46,5.46,0,0,1-2.54,1.24A5.37,5.37,0,0,1,626.18,1209.49Zm4.42-2a3.63,3.63,0,0,0,1.06-1.71,4.52,4.52,0,0,0,0-2.2,4.42,4.42,0,0,0-.93-2,3.61,3.61,0,0,0-1.66-1.13,4.21,4.21,0,0,0-3.93.84,3.55,3.55,0,0,0-1.07,1.71,4.51,4.51,0,0,0-.06,2.2,4.36,4.36,0,0,0,1,2,3.56,3.56,0,0,0,1.67,1.13,3.9,3.9,0,0,0,2.07.08A4,4,0,0,0,630.6,1207.45Z" transform="translate(-464.57 -1130.43)" style="fill:#fff"/><path d="M643.41,1195.68l1.91,9a5.33,5.33,0,0,1-.45,4.15,5.44,5.44,0,0,1-3.6,2.09,8.85,8.85,0,0,1-2.8.15,5.76,5.76,0,0,1-2.33-.72l.48-1.21a5.46,5.46,0,0,0,2,.66,7,7,0,0,0,2.32-.11,4,4,0,0,0,2.68-1.52,3.88,3.88,0,0,0,.32-3l-.28-1.31a4.26,4.26,0,0,1-1.37,1.84,5.34,5.34,0,0,1-2.21,1,5.74,5.74,0,0,1-2.77-.08,4.86,4.86,0,0,1-2.24-1.39,5.41,5.41,0,0,1-1.09-5.17,4.86,4.86,0,0,1,1.47-2.16,5.68,5.68,0,0,1,2.51-1.18,5.32,5.32,0,0,1,2.48,0,4.43,4.43,0,0,1,2,1.17l-.42-2Zm-1.51,8.88a3.59,3.59,0,0,0,1.11-1.64,3.86,3.86,0,0,0,.08-2.06,3.81,3.81,0,0,0-.91-1.84,3.6,3.6,0,0,0-1.67-1,4.58,4.58,0,0,0-4,.85,3.48,3.48,0,0,0-1.11,1.62,3.87,3.87,0,0,0-.08,2.06,3.92,3.92,0,0,0,.91,1.86,3.55,3.55,0,0,0,1.68,1,4.24,4.24,0,0,0,2.1,0A4.33,4.33,0,0,0,641.9,1204.56Z" transform="translate(-464.57 -1130.43)" style="fill:#fff"/><path d="M484.88,1259l1.39-.29,3.08,14.51-1.38.3Z" transform="translate(-464.57 -1130.43)" style="fill:#fff"/><path d="M493.65,1271.72a5,5,0,0,1-2.27-1.47,5.38,5.38,0,0,1-1.26-2.56,5.44,5.44,0,0,1,.11-2.84,4.88,4.88,0,0,1,1.49-2.26,5.88,5.88,0,0,1,5.36-1.14,4.93,4.93,0,0,1,2.26,1.46,5.87,5.87,0,0,1,1.15,5.4,5.08,5.08,0,0,1-1.48,2.27,5.43,5.43,0,0,1-2.53,1.24A5.51,5.51,0,0,1,493.65,1271.72Zm4.43-2a3.53,3.53,0,0,0,1.05-1.7,4.79,4.79,0,0,0-.89-4.19,3.56,3.56,0,0,0-1.66-1.13,3.9,3.9,0,0,0-2.07-.08,4,4,0,0,0-1.86.91,3.72,3.72,0,0,0-1.07,1.71,4.79,4.79,0,0,0,.89,4.19,3.69,3.69,0,0,0,1.67,1.13,4,4,0,0,0,2.08.08A4,4,0,0,0,498.08,1269.67Z" transform="translate(-464.57 -1130.43)" style="fill:#fff"/><path d="M510.88,1257.91l1.92,9a4.62,4.62,0,0,1-4,6.23,8.6,8.6,0,0,1-2.8.16,5.71,5.71,0,0,1-2.33-.72l.48-1.21a5.22,5.22,0,0,0,2,.65,6.74,6.74,0,0,0,2.32-.1,4.06,4.06,0,0,0,2.68-1.52,3.94,3.94,0,0,0,.32-3l-.28-1.31a4.2,4.2,0,0,1-1.38,1.84,5.27,5.27,0,0,1-2.21,1,5.59,5.59,0,0,1-2.76-.07,4.81,4.81,0,0,1-2.24-1.39,5.18,5.18,0,0,1-1.23-2.45,5.09,5.09,0,0,1,.13-2.72,4.75,4.75,0,0,1,1.48-2.16,5.57,5.57,0,0,1,2.51-1.18,5.27,5.27,0,0,1,2.47,0,4.3,4.3,0,0,1,2,1.17l-.42-2Zm-1.51,8.87a3.53,3.53,0,0,0,1.12-1.63,4.2,4.2,0,0,0-.83-3.91,3.63,3.63,0,0,0-1.67-1,4.36,4.36,0,0,0-2.13,0,4.5,4.5,0,0,0-1.91.89,3.56,3.56,0,0,0-1.1,1.63,4,4,0,0,0-.09,2.06,3.9,3.9,0,0,0,.92,1.85,3.54,3.54,0,0,0,1.67,1.05,4.55,4.55,0,0,0,4-.86Z" transform="translate(-464.57 -1130.43)" style="fill:#fff"/><path d="M517.38,1253.87a1,1,0,0,1-.44-.64,1,1,0,0,1,.81-1.2,1,1,0,0,1,.78.13.92.92,0,0,1,.44.62,1,1,0,0,1-.14.78,1,1,0,0,1-.66.45A1,1,0,0,1,517.38,1253.87Zm.56,2.54,1.39-.3,2.19,10.29-1.39.3Z" transform="translate(-464.57 -1130.43)" style="fill:#fff"/><path d="M530.77,1254.78a4.45,4.45,0,0,1,1.84,3l1.27,6-1.39.29-1.24-5.83a3.43,3.43,0,0,0-1.32-2.27,3.05,3.05,0,0,0-2.46-.36,3.66,3.66,0,0,0-2.43,1.55,3.86,3.86,0,0,0-.39,2.93l1.15,5.4-1.39.3-2.18-10.29,1.33-.28.4,1.89a4,4,0,0,1,1.27-1.79,5.11,5.11,0,0,1,2.22-1A4.26,4.26,0,0,1,530.77,1254.78Z" transform="translate(-464.57 -1130.43)" style="fill:#fff"/><path d="M541.89,1246.91l1.39-.3,3.08,14.52-1.39.29Z" transform="translate(-464.57 -1130.43)" style="fill:#fff"/><path d="M550.66,1259.61a5,5,0,0,1-2.27-1.47,5.34,5.34,0,0,1-1.26-2.55,5.48,5.48,0,0,1,.11-2.85,5,5,0,0,1,1.48-2.25,5.83,5.83,0,0,1,5.36-1.14,4.88,4.88,0,0,1,2.27,1.46,5.83,5.83,0,0,1,1.14,5.4,5,5,0,0,1-1.47,2.27,5.79,5.79,0,0,1-5.36,1.13Zm4.42-2a3.46,3.46,0,0,0,1.06-1.71,4.77,4.77,0,0,0-.89-4.18,3.49,3.49,0,0,0-1.66-1.13,3.9,3.9,0,0,0-2.07-.08,4,4,0,0,0-1.86.91,3.65,3.65,0,0,0-1.07,1.71,4.79,4.79,0,0,0,.89,4.19,3.64,3.64,0,0,0,1.67,1.13,4.21,4.21,0,0,0,3.93-.84Z" transform="translate(-464.57 -1130.43)" style="fill:#fff"/><path d="M567.89,1245.81l1.92,9a5.35,5.35,0,0,1-.46,4.16,5.41,5.41,0,0,1-3.6,2.08,8.81,8.81,0,0,1-2.79.16,5.66,5.66,0,0,1-2.34-.73l.49-1.2a5.34,5.34,0,0,0,2,.65,7,7,0,0,0,2.32-.1,4.1,4.1,0,0,0,2.69-1.52,3.94,3.94,0,0,0,.32-3l-.28-1.32a4.23,4.23,0,0,1-1.38,1.85,5.27,5.27,0,0,1-2.21,1,5.51,5.51,0,0,1-2.77-.08,4.73,4.73,0,0,1-2.23-1.38,5.23,5.23,0,0,1-1.23-2.45,5.12,5.12,0,0,1,.13-2.73,4.78,4.78,0,0,1,1.47-2.15,5.74,5.74,0,0,1,2.51-1.19,5.45,5.45,0,0,1,2.48,0,4.36,4.36,0,0,1,2,1.16l-.42-2Zm-1.51,8.87a3.51,3.51,0,0,0,1.11-1.63,4,4,0,0,0,.09-2.07,4,4,0,0,0-.91-1.84,3.61,3.61,0,0,0-1.68-1,4.21,4.21,0,0,0-2.12,0,4.33,4.33,0,0,0-1.91.89,3.44,3.44,0,0,0-1.1,1.63,3.86,3.86,0,0,0-.09,2.06,3.9,3.9,0,0,0,.92,1.85,3.61,3.61,0,0,0,1.67,1,4.55,4.55,0,0,0,4-.86Z" transform="translate(-464.57 -1130.43)" style="fill:#fff"/><path d="M574.39,1241.77a1,1,0,0,1-.44-.64.92.92,0,0,1,.15-.75,1,1,0,0,1,.66-.45,1,1,0,0,1,.78.13.94.94,0,0,1,.44.61,1,1,0,0,1-.14.79,1,1,0,0,1-.66.45A1,1,0,0,1,574.39,1241.77Zm.56,2.54,1.39-.3,2.19,10.29-1.39.3Z" transform="translate(-464.57 -1130.43)" style="fill:#fff"/><path d="M587.78,1242.68a4.47,4.47,0,0,1,1.84,3l1.27,6-1.39.29-1.24-5.83a3.4,3.4,0,0,0-1.32-2.27,3.08,3.08,0,0,0-2.47-.36,3.63,3.63,0,0,0-2.42,1.55,3.85,3.85,0,0,0-.39,2.93l1.15,5.4-1.39.3-2.18-10.29,1.33-.29.4,1.9a4,4,0,0,1,1.27-1.79,5,5,0,0,1,2.22-1A4.26,4.26,0,0,1,587.78,1242.68Z" transform="translate(-464.57 -1130.43)" style="fill:#fff"/><path d="M598.9,1234.81l1.39-.3,3.08,14.52-1.39.29Z" transform="translate(-464.57 -1130.43)" style="fill:#fff"/><path d="M607.67,1247.51a5,5,0,0,1-2.27-1.47,5.78,5.78,0,0,1-1.15-5.4,5,5,0,0,1,1.48-2.25,5.83,5.83,0,0,1,5.36-1.14,4.88,4.88,0,0,1,2.27,1.46,5.54,5.54,0,0,1,1.24,2.56,5.44,5.44,0,0,1-.1,2.84,4.89,4.89,0,0,1-1.47,2.26,5.75,5.75,0,0,1-5.36,1.14Zm4.42-2a3.63,3.63,0,0,0,1.06-1.71,4.77,4.77,0,0,0-.89-4.18,3.49,3.49,0,0,0-1.66-1.13,4.17,4.17,0,0,0-3.93.83,3.65,3.65,0,0,0-1.07,1.71,4.79,4.79,0,0,0,.89,4.19,3.62,3.62,0,0,0,1.67,1.12,4.17,4.17,0,0,0,3.93-.83Z" transform="translate(-464.57 -1130.43)" style="fill:#fff"/><path d="M624.9,1233.7l1.92,9a5.35,5.35,0,0,1-.46,4.16,5.45,5.45,0,0,1-3.6,2.08,8.8,8.8,0,0,1-2.79.15,5.61,5.61,0,0,1-2.34-.72l.48-1.2a5.64,5.64,0,0,0,2,.65,7,7,0,0,0,2.32-.1,4.1,4.1,0,0,0,2.69-1.52,3.92,3.92,0,0,0,.31-3l-.27-1.31a4.23,4.23,0,0,1-1.38,1.85,5.32,5.32,0,0,1-2.21,1,5.62,5.62,0,0,1-2.77-.08,4.76,4.76,0,0,1-2.23-1.38,5.23,5.23,0,0,1-1.23-2.45,5.12,5.12,0,0,1,.13-2.73A4.78,4.78,0,0,1,617,1236a5.64,5.64,0,0,1,2.51-1.19,5.31,5.31,0,0,1,2.48,0,4.36,4.36,0,0,1,2,1.16l-.42-2Zm-1.51,8.88a3.54,3.54,0,0,0,1.11-1.64,4,4,0,0,0,.09-2.06,3.87,3.87,0,0,0-.92-1.84,3.6,3.6,0,0,0-1.67-1,4.32,4.32,0,0,0-2.12,0,4.22,4.22,0,0,0-1.91.89,3.46,3.46,0,0,0-1.11,1.63,4.2,4.2,0,0,0,.83,3.91,3.6,3.6,0,0,0,1.68,1,4.16,4.16,0,0,0,2.11.06A4.3,4.3,0,0,0,623.39,1242.58Z" transform="translate(-464.57 -1130.43)" style="fill:#fff"/><path d="M631.4,1229.67a1,1,0,0,1-.44-.65.9.9,0,0,1,.15-.74,1,1,0,0,1,.66-.45,1,1,0,0,1,.78.13.94.94,0,0,1,.44.61,1,1,0,0,1-1.59,1.1Zm.56,2.53,1.39-.29,2.18,10.29-1.38.29Z" transform="translate(-464.57 -1130.43)" style="fill:#fff"/><path d="M644.79,1230.57a4.49,4.49,0,0,1,1.84,3l1.27,6-1.39.29-1.24-5.83a3.44,3.44,0,0,0-1.32-2.27,3.08,3.08,0,0,0-2.47-.36,3.6,3.6,0,0,0-2.42,1.55,3.85,3.85,0,0,0-.39,2.93l1.15,5.4-1.39.3-2.18-10.3,1.33-.28.4,1.9a3.87,3.87,0,0,1,1.26-1.79,5.21,5.21,0,0,1,2.23-1A4.35,4.35,0,0,1,644.79,1230.57Z" transform="translate(-464.57 -1130.43)" style="fill:#fff"/><path d="M492.73,1293.2a1,1,0,0,1-.44-.65,1,1,0,0,1,.81-1.19,1,1,0,0,1,.79.13.92.92,0,0,1,.43.61,1,1,0,0,1-.14.79,1,1,0,0,1-.66.45A1,1,0,0,1,492.73,1293.2Zm.56,2.54,1.39-.3,2.19,10.29-1.39.3Z" transform="translate(-464.57 -1130.43)" style="fill:#fff"/><path d="M506.12,1294.11a4.45,4.45,0,0,1,1.85,3l1.26,6-1.39.29-1.23-5.83a3.45,3.45,0,0,0-1.33-2.27,3.05,3.05,0,0,0-2.46-.36,3.62,3.62,0,0,0-2.43,1.55,3.81,3.81,0,0,0-.38,2.93l1.14,5.4-1.39.3-2.18-10.29,1.33-.29.4,1.9a4,4,0,0,1,1.27-1.79,5.17,5.17,0,0,1,2.22-1A4.3,4.3,0,0,1,506.12,1294.11Z" transform="translate(-464.57 -1130.43)" style="fill:#fff"/><path d="M517.24,1286.24l1.39-.3,3.08,14.52-1.39.29Z" transform="translate(-464.57 -1130.43)" style="fill:#fff"/><path d="M526,1298.94a5,5,0,0,1-2.27-1.47,5.39,5.39,0,0,1-1.26-2.55,5.47,5.47,0,0,1,.11-2.85,5,5,0,0,1,1.48-2.26,5.6,5.6,0,0,1,2.54-1.23,5.47,5.47,0,0,1,2.82.1,4.88,4.88,0,0,1,2.27,1.46,5.83,5.83,0,0,1,1.14,5.4,5,5,0,0,1-1.47,2.26,5.44,5.44,0,0,1-2.53,1.25A5.5,5.5,0,0,1,526,1298.94Zm4.42-2a3.55,3.55,0,0,0,1.06-1.71,4.79,4.79,0,0,0-.89-4.19,3.56,3.56,0,0,0-1.66-1.13,4.12,4.12,0,0,0-2.07-.08,4,4,0,0,0-1.86.92,3.65,3.65,0,0,0-1.07,1.71,4.79,4.79,0,0,0,.89,4.19,3.62,3.62,0,0,0,1.67,1.12,3.9,3.9,0,0,0,2.07.08A4,4,0,0,0,530.43,1296.9Z" transform="translate(-464.57 -1130.43)" style="fill:#fff"/><path d="M543.24,1285.13l1.92,9a5.36,5.36,0,0,1-.46,4.16,5.42,5.42,0,0,1-3.59,2.08,8.88,8.88,0,0,1-2.8.15,5.71,5.71,0,0,1-2.33-.72l.48-1.2a5.57,5.57,0,0,0,2,.65,6.68,6.68,0,0,0,2.31-.11,4,4,0,0,0,2.69-1.52,3.93,3.93,0,0,0,.32-3l-.28-1.31a4.23,4.23,0,0,1-1.38,1.85,5.39,5.39,0,0,1-2.21,1,5.58,5.58,0,0,1-2.76-.08,4.73,4.73,0,0,1-2.24-1.39,5.37,5.37,0,0,1-1.1-5.17,4.72,4.72,0,0,1,1.48-2.15,5.6,5.6,0,0,1,2.5-1.19,5.31,5.31,0,0,1,2.48,0,4.36,4.36,0,0,1,2,1.16l-.42-2Zm-1.51,8.88a3.54,3.54,0,0,0,1.11-1.64,3.86,3.86,0,0,0,.09-2.06,4,4,0,0,0-.91-1.84,3.63,3.63,0,0,0-1.68-1,4.6,4.6,0,0,0-4,.85,3.53,3.53,0,0,0-1.1,1.62,4,4,0,0,0-.09,2.07,4,4,0,0,0,.92,1.85,3.52,3.52,0,0,0,1.67,1,4.51,4.51,0,0,0,4-.85Z" transform="translate(-464.57 -1130.43)" style="fill:#fff"/><path d="M549.74,1281.09a1,1,0,0,1-.44-.64.9.9,0,0,1,.15-.74,1,1,0,0,1,.66-.45,1,1,0,0,1,.78.13.94.94,0,0,1,.44.61,1,1,0,0,1-.14.79,1,1,0,0,1-.66.44A1,1,0,0,1,549.74,1281.09Zm.56,2.54,1.39-.29,2.19,10.29-1.39.29Z" transform="translate(-464.57 -1130.43)" style="fill:#fff"/><path d="M563.13,1282a4.49,4.49,0,0,1,1.84,3l1.27,6-1.39.3-1.24-5.83a3.45,3.45,0,0,0-1.32-2.28,3.12,3.12,0,0,0-2.47-.35,3.59,3.59,0,0,0-2.42,1.55,3.85,3.85,0,0,0-.39,2.93l1.15,5.4-1.39.29-2.18-10.29,1.33-.28.4,1.9a3.89,3.89,0,0,1,1.27-1.79,5.12,5.12,0,0,1,2.22-1A4.35,4.35,0,0,1,563.13,1282Z" transform="translate(-464.57 -1130.43)" style="fill:#fff"/><path d="M574.25,1274.13l1.39-.29,3.08,14.51-1.39.3Z" transform="translate(-464.57 -1130.43)" style="fill:#fff"/><path d="M583,1286.84a5,5,0,0,1-2.27-1.47,5.78,5.78,0,0,1-1.15-5.4,5,5,0,0,1,1.48-2.26,5.9,5.9,0,0,1,5.36-1.14,5,5,0,0,1,2.27,1.47,5.55,5.55,0,0,1,1.24,2.55,5.47,5.47,0,0,1-.1,2.85,5,5,0,0,1-1.47,2.26,5.57,5.57,0,0,1-2.54,1.25A5.47,5.47,0,0,1,583,1286.84Zm4.42-2a3.63,3.63,0,0,0,1.06-1.71,4.79,4.79,0,0,0-.89-4.19,3.56,3.56,0,0,0-1.66-1.13,4.21,4.21,0,0,0-3.93.84,3.55,3.55,0,0,0-1.07,1.71,4.4,4.4,0,0,0-.05,2.2,4.35,4.35,0,0,0,.94,2,3.56,3.56,0,0,0,1.67,1.13,3.9,3.9,0,0,0,2.07.08A4,4,0,0,0,587.44,1284.8Z" transform="translate(-464.57 -1130.43)" style="fill:#fff"/><path d="M600.25,1273l1.92,9a5.32,5.32,0,0,1-.46,4.15,5.41,5.41,0,0,1-3.6,2.09,8.8,8.8,0,0,1-2.79.15,5.76,5.76,0,0,1-2.34-.72l.48-1.21a5.46,5.46,0,0,0,2,.66,7,7,0,0,0,2.32-.11,4,4,0,0,0,2.69-1.52,3.89,3.89,0,0,0,.31-3l-.27-1.31a4.29,4.29,0,0,1-1.38,1.85,5.45,5.45,0,0,1-2.21,1,5.62,5.62,0,0,1-2.77-.08,4.78,4.78,0,0,1-2.23-1.39,5.38,5.38,0,0,1-1.1-5.17,4.78,4.78,0,0,1,1.47-2.15,5.64,5.64,0,0,1,2.51-1.19,5.32,5.32,0,0,1,2.48,0,4.47,4.47,0,0,1,2,1.17l-.42-2Zm-1.51,8.88a3.54,3.54,0,0,0,1.11-1.64,4,4,0,0,0,.09-2.06,3.82,3.82,0,0,0-.92-1.84,3.6,3.6,0,0,0-1.67-1,4.6,4.6,0,0,0-4,.85,3.48,3.48,0,0,0-1.11,1.62,4.21,4.21,0,0,0,.83,3.92,3.6,3.6,0,0,0,1.68,1,4.61,4.61,0,0,0,4-.85Z" transform="translate(-464.57 -1130.43)" style="fill:#fff"/><path d="M606.75,1269a1,1,0,0,1-.44-.64.93.93,0,0,1,.15-.75,1,1,0,0,1,.66-.44,1,1,0,0,1,.78.13.91.91,0,0,1,.44.61,1,1,0,0,1-.14.78,1,1,0,0,1-.66.45A1,1,0,0,1,606.75,1269Zm.56,2.54,1.39-.29,2.18,10.29-1.38.29Z" transform="translate(-464.57 -1130.43)" style="fill:#fff"/><path d="M620.14,1269.9a4.49,4.49,0,0,1,1.84,3l1.27,6-1.39.3-1.24-5.83a3.49,3.49,0,0,0-1.32-2.28,3.08,3.08,0,0,0-2.47-.35,3.59,3.59,0,0,0-2.42,1.54,3.89,3.89,0,0,0-.39,2.94l1.15,5.4-1.39.29-2.18-10.29,1.33-.28.4,1.9a3.82,3.82,0,0,1,1.26-1.79,5.16,5.16,0,0,1,2.23-1A4.31,4.31,0,0,1,620.14,1269.9Z" transform="translate(-464.57 -1130.43)" style="fill:#fff"/><path d="M631.26,1262l1.39-.29,3.08,14.51-1.39.3Z" transform="translate(-464.57 -1130.43)" style="fill:#fff"/><path d="M640,1274.74a5.06,5.06,0,0,1-2.28-1.47,5.45,5.45,0,0,1-1.25-2.56,5.33,5.33,0,0,1,.11-2.84,5,5,0,0,1,1.48-2.26,5.9,5.9,0,0,1,5.36-1.14,4.88,4.88,0,0,1,2.26,1.46,5.5,5.5,0,0,1,1.25,2.56,5.43,5.43,0,0,1-.1,2.84,4.92,4.92,0,0,1-1.47,2.27,5.83,5.83,0,0,1-5.36,1.14Zm4.42-2a3.55,3.55,0,0,0,1.06-1.7,4.52,4.52,0,0,0,0-2.2,4.37,4.37,0,0,0-.93-2,3.61,3.61,0,0,0-1.66-1.13,4.21,4.21,0,0,0-3.93.84,3.57,3.57,0,0,0-1.07,1.7,4.41,4.41,0,0,0-.05,2.2,4.34,4.34,0,0,0,.94,2,3.64,3.64,0,0,0,1.67,1.13,4.21,4.21,0,0,0,3.93-.84Z" transform="translate(-464.57 -1130.43)" style="fill:#fff"/><path d="M657.26,1260.93l1.92,9a4.62,4.62,0,0,1-4.06,6.23,8.57,8.57,0,0,1-2.8.16,5.76,5.76,0,0,1-2.33-.72l.48-1.21a5.27,5.27,0,0,0,2,.65,6.72,6.72,0,0,0,2.32-.1,4,4,0,0,0,2.68-1.52,3.85,3.85,0,0,0,.32-3l-.27-1.31a4.36,4.36,0,0,1-1.38,1.84,5.32,5.32,0,0,1-2.21,1,5.62,5.62,0,0,1-2.77-.07,4.78,4.78,0,0,1-2.23-1.39,5.38,5.38,0,0,1-1.1-5.17,4.81,4.81,0,0,1,1.47-2.16,5.62,5.62,0,0,1,2.51-1.18,5.32,5.32,0,0,1,2.48,0,4.34,4.34,0,0,1,2,1.17l-.42-2Zm-1.51,8.88a3.59,3.59,0,0,0,1.11-1.64,4,4,0,0,0,.09-2.06,3.82,3.82,0,0,0-.92-1.84,3.52,3.52,0,0,0-1.67-1,4.58,4.58,0,0,0-4,.85,3.43,3.43,0,0,0-1.11,1.62,4.2,4.2,0,0,0,.83,3.91,3.54,3.54,0,0,0,1.68,1.05,4.24,4.24,0,0,0,2.1,0A4.44,4.44,0,0,0,655.75,1269.81Z" transform="translate(-464.57 -1130.43)" style="fill:#fff"/></svg>