<svg id="Layer_1" data-name="Layer 1" xmlns="http://www.w3.org/2000/svg" viewBox="0 0 79 95.44"><path d="M595.51,1323.12c-4.84-17.15-25.78-26.26-46.78-20.33s-34.09,24.63-29.25,41.78c2.22,7.86,7.82,14,15.26,17.83.84,9.61-11.43,25.79-11.43,25.79s20.17-4.32,27.4-21.56a47.46,47.46,0,0,0,15.55-1.73C587.25,1359,600.35,1340.27,595.51,1323.12Zm-38.45,21.29q-2.4,6.55-9.94,11.66l-5.37-3.64a14.37,14.37,0,0,0,6-6.75q1.53-3.87.22-9.53l-8.59,2.42-4-14,17.65-5,3.13,11.09Q558.78,1339.64,557.06,1344.41Zm21.68-6.24q-2.4,6.55-9.94,11.65l-5.37-3.63a14.52,14.52,0,0,0,6-6.75q1.51-3.87.22-9.53l-8.59,2.42-4-14,17.65-5,3.13,11.09Q580.45,1333.41,578.74,1338.17Z" transform="translate(-518.47 -1292.75)" style="fill:#fff"/><polygon points="79 5.27 73.73 5.27 73.73 0 71.41 0 71.41 5.27 66.14 5.27 66.14 7.59 71.41 7.59 71.41 12.86 73.73 12.86 73.73 7.59 79 7.59 79 5.27" style="fill:#fff"/></svg>