<svg id="Layer_1" data-name="Layer 1" xmlns="http://www.w3.org/2000/svg" viewBox="0 0 123.76 100.52"><path d="M569.86,1193.61c1.33-11.29-8.81-21.76-22.64-23.38s-26.11,6.22-27.43,17.52a18.53,18.53,0,0,0,4.66,14.23c-1.85,5.88-13,12.43-13,12.43s12.95,2.37,21.42-6a30,30,0,0,0,9.59,2.76C556.26,1212.75,568.54,1204.91,569.86,1193.61Zm-27.87,3.2a15.68,15.68,0,0,1-8.7,4.45l-2.28-3.45a9.25,9.25,0,0,0,5.21-2.51,10.36,10.36,0,0,0,2.45-5.57l-5.66-.66,1.08-9.25,11.63,1.36-.86,7.3C544.4,1192.44,543.44,1195.21,542,1196.81Zm14.31,1.6a15.78,15.78,0,0,1-8.7,4.45l-2.28-3.45a9.25,9.25,0,0,0,5.21-2.51,10.39,10.39,0,0,0,2.45-5.57l-5.66-.66,1.08-9.26,11.63,1.36-.86,7.31Q558.48,1196,556.3,1198.41Z" transform="translate(-499.5 -1169.14)" style="fill:#fff"/><path d="M552.61,1237.62c-1-11.34-13-19.57-26.85-18.4s-24.34,11.31-23.39,22.64a18.57,18.57,0,0,0,7.41,13c-.64,6.13-10.28,14.78-10.28,14.78s13.16-.27,19.77-10.2a30.26,30.26,0,0,0,10,.8C543.1,1259.09,553.57,1249,552.61,1237.62Zm-26.67,8.69a15.75,15.75,0,0,1-7.64,6.1l-2.92-2.93a9.16,9.16,0,0,0,4.6-3.5,10.21,10.21,0,0,0,1.29-5.94l-5.68.48-.78-9.29,11.66-1,.62,7.33Q527.58,1243.53,525.94,1246.31Zm14.34-1.29a15.75,15.75,0,0,1-7.64,6.1l-2.92-2.93a9.16,9.16,0,0,0,4.6-3.5,10.21,10.21,0,0,0,1.29-5.94l-5.68.48-.78-9.29,11.66-1,.62,7.33Q541.92,1242.24,540.28,1245Z" transform="translate(-499.5 -1169.14)" style="fill:#fff"/><path d="M606.13,1225.69c-1.9-11.21-14.57-18.42-28.29-16.09s-23.32,13.29-21.42,24.51a18.51,18.51,0,0,0,8.46,12.35c-.12,6.16-9,15.59-9,15.59s13.1-1.36,18.87-11.81a29.87,29.87,0,0,0,10,0C598.44,1247.88,608,1236.91,606.13,1225.69Zm-25.86,10.89a15.7,15.7,0,0,1-7.1,6.71l-3.16-2.67a9.29,9.29,0,0,0,4.3-3.87,10.3,10.3,0,0,0,.79-6l-5.62,1-1.56-9.19,11.54-2,1.23,7.25Q581.68,1233.68,580.27,1236.58Zm14.18-2.48a15.7,15.7,0,0,1-7.1,6.71l-3.16-2.67a9.19,9.19,0,0,0,4.3-3.87,10.3,10.3,0,0,0,.79-6l-5.62,1-1.55-9.19,11.53-2,1.23,7.25Q595.88,1231.2,594.45,1234.1Z" transform="translate(-499.5 -1169.14)" style="fill:#fff"/><path d="M622.64,1196.1c3-10.61-5.11-22.18-18.1-25.84s-25.95,2-28.94,12.57,5.11,22.18,18.1,25.85a29.22,29.22,0,0,0,9.62,1.07c4.47,10.66,16.95,13.34,16.95,13.34s-7.59-10-7.07-16A18,18,0,0,0,622.64,1196.1ZM585.51,1193l-.41-4a8.92,8.92,0,0,0,5.61.19,10,10,0,0,0,4.61-3.67l-4.56-3.12,5.1-7.45,9.36,6.4-4,5.88q-3.27,4.79-6.22,5.86A15.24,15.24,0,0,1,585.51,1193Zm27.25,2.06q-3.27,4.79-6.21,5.85a15.2,15.2,0,0,1-9.48-.09l-.4-4a9,9,0,0,0,5.6.19,9.9,9.9,0,0,0,4.61-3.68l-4.56-3.11,5.1-7.46,9.36,6.4Z" transform="translate(-499.5 -1169.14)" style="fill:#fff"/></svg>