<svg id="Layer_1" data-name="Layer 1" xmlns="http://www.w3.org/2000/svg" width="433.6" height="395.4" viewBox="0 0 433.6 395.4">
  <defs>
    <style>
      .cls-1 {
        fill: #fff;
      }
    </style>
  </defs>
  <path class="cls-1" d="M384.12,108.42h0l-.54.15h0l-248,69.19h0l-.26.06h0C95.51,188.94,77.67,249.73,95.49,313.6l32.87,117.8,72.38-20.2L274,390.77l45.27-12.63,34.61,124,44.31-12.36-34.61-124,13.06-3.64,72.66-20.28,72.93-20.35L489.91,205.86C471.84,141.09,424.57,97.64,384.12,108.42Zm-116,272.49L135.8,417.82l-29.86-107c-16.19-58,0-113.26,36.21-123.36h0c36.87-10.29,80.12,29.29,96.61,88.4ZM432.85,218.38,442,251.16a10.09,10.09,0,0,1-7,12.43L397.77,274a10.1,10.1,0,0,1-12.43-7l-9.14-32.78-97,27.07a5,5,0,0,1-6.22-3.51l-.79-2.86a5,5,0,0,1,3.5-6.21l153.65-42.87Z" transform="translate(-88.58 -106.78)"/>
</svg>
