<svg id="Layer_1" data-name="Layer 1" xmlns="http://www.w3.org/2000/svg" viewBox="0 0 123.05 100"><path d="M619,1302.31a50.39,50.39,0,0,1-14.5,4,25.25,25.25,0,0,0,11.1-14,50.48,50.48,0,0,1-16,6.12,25.26,25.26,0,0,0-43,23,71.7,71.7,0,0,1-52-26.38,25.28,25.28,0,0,0,7.81,33.71,25.23,25.23,0,0,1-11.43-3.16,25.25,25.25,0,0,0,20.24,25.07,25.33,25.33,0,0,1-11.4.43,25.26,25.26,0,0,0,23.59,17.53A50.78,50.78,0,0,1,496,1379.13a71.49,71.49,0,0,0,38.7,11.34c46.87,0,73.35-39.59,71.75-75.09A51.17,51.17,0,0,0,619,1302.31Z" transform="translate(-495.97 -1290.47)" style="fill:#fff"/></svg>