<svg id="Layer_1" data-name="Layer 1" xmlns="http://www.w3.org/2000/svg" viewBox="0 0 85.58 113.59"><path d="M581.4,1226l-3.22,1.94-3.09-5.13a33,33,0,1,0-6.19,3.73l3.09,5.13-3.22,1.94,26.28,43.61,12.63-7.61Zm-48.62-16a26,26,0,1,1,35.73,8.86A26.05,26.05,0,0,1,532.78,1210.07Z" transform="translate(-522.1 -1163.66)" style="fill:#fff;fill-rule:evenodd"/><path d="M540.77,1207.28a2.31,2.31,0,0,1-3.17-.79c-5.9-9.78-3.29-20.32,6.5-26.21a2.31,2.31,0,0,1,2.39,4c-9.14,5.51-8.54,13.87-4.93,19.86A2.32,2.32,0,0,1,540.77,1207.28Z" transform="translate(-522.1 -1163.66)" style="fill:#fff"/><circle cx="29.93" cy="15.22" r="2.31" style="fill:#fff"/></svg>