<svg id="Layer_1" data-name="Layer 1" xmlns="http://www.w3.org/2000/svg" viewBox="0 0 50.7 51.36"><path d="M599,1243.88l3.41,4,.79-10-9.94-.8,3.42,4a14.32,14.32,0,0,1-20.14-1.6l-2.73,2.32A17.91,17.91,0,0,0,599,1243.88Z" transform="translate(-562.42 -1196.75)" style="fill:#fff"/><path d="M600,1212.14c-4.86,0-6.16,1.66-12.27,1.72s-7.42-1.72-12.28-1.72-13.07,3.63-13.07,10.74,3.36,10.77,10.5,10.77,13.93-6.26,13.93-6.26l.06-.14a2.89,2.89,0,0,1,.86-.39,2.86,2.86,0,0,1,.85.39.46.46,0,0,1,.07.14s6.8,6.28,13.93,6.28,10.5-3.63,10.5-10.79S605,1212.14,600,1212.14Zm-24.37,13c-4.52-.42-5.79-3.25-5.79-3.25a9.5,9.5,0,0,1,6.82-2.19,7.29,7.29,0,0,1,5.88,3.33S580.77,1225.66,575.67,1225.13Zm23.59.33c-5.09.48-6.91-2.16-6.91-2.16a7.26,7.26,0,0,1,5.88-3.32,9.45,9.45,0,0,1,6.82,2.22S603.78,1225,599.26,1225.46Z" transform="translate(-562.42 -1196.75)" style="fill:#fff"/><path d="M578,1201l-3.4-4-.8,10,10,.8-3.48-4.08a14.34,14.34,0,0,1,20.15,1.66l2.72-2.31A17.89,17.89,0,0,0,578,1201Z" transform="translate(-562.42 -1196.75)" style="fill:#fff"/></svg>